<svg xmlns="http://www.w3.org/2000/svg" xmlns:xlink="http://www.w3.org/1999/xlink" width="118" height="118" viewBox="0 0 118 118">
  <defs>
    <filter id="Rectangle_411831" x="0" y="0" width="118" height="118" filterUnits="userSpaceOnUse">
      <feOffset dy="3" input="SourceAlpha"/>
      <feGaussianBlur stdDeviation="3" result="blur"/>
      <feFlood flood-opacity="0.161"/>
      <feComposite operator="in" in2="blur"/>
      <feComposite in="SourceGraphic"/>
    </filter>
  </defs>
  <g id="Group_1228787" data-name="Group 1228787" transform="translate(-791.781 -1956)">
    <g id="Group_1203409" data-name="Group 1203409" transform="translate(465 -1896)">
      <g transform="matrix(1, 0, 0, 1, 326.78, 3852)" filter="url(#Rectangle_411831)">
        <g id="Rectangle_411831-2" data-name="Rectangle 411831" transform="translate(9 6)" fill="#b8a9f1" stroke="#fff" stroke-width="2">
          <path d="M5,0H68a32,32,0,0,1,32,32V95a5,5,0,0,1-5,5H32A32,32,0,0,1,0,68V5A5,5,0,0,1,5,0Z" stroke="none"/>
          <path d="M5,1H68A31,31,0,0,1,99,32V95a4,4,0,0,1-4,4H32A31,31,0,0,1,1,68V5A4,4,0,0,1,5,1Z" fill="none"/>
        </g>
      </g>
    </g>
    <g id="Group_1228797" data-name="Group 1228797" transform="translate(6057.781 10851.109)">
      <path id="Path_1490904" data-name="Path 1490904" d="M41.013,15.333V42.5H.1V15.333A2.816,2.816,0,0,1,2.937,12.5H38.285a2.95,2.95,0,0,1,2.728,2.837" transform="translate(-5230.524 -8868.057)" fill="#d7deed" stroke="#000" stroke-linecap="round" stroke-linejoin="round" stroke-width="1" stroke-dasharray="80 5"/>
      <path id="Path_1490905" data-name="Path 1490905" d="M41.022,53.741a2.816,2.816,0,0,1-2.837,2.837H2.837A2.817,2.817,0,0,1,0,53.741V40.212H40.912c.11,0,.11,11.892.11,13.529" transform="translate(-5230.533 -8865.66)" fill="#74829c" stroke="#000" stroke-linecap="round" stroke-linejoin="round" stroke-width="1" stroke-dasharray="80 5"/>
      <path id="Path_1490906" data-name="Path 1490906" d="M55.275,36.312a3.017,3.017,0,0,1-1.745,4.036L40.11,45.694V16.237A2.816,2.816,0,0,0,37.273,13.4H10.544L38.255,2.273a3.018,3.018,0,0,1,4.037,1.745Z" transform="translate(-5229.622 -8868.961)" fill="#bec3c7" stroke="#000" stroke-linecap="round" stroke-linejoin="round" stroke-width="1" stroke-dasharray="80 5"/>
      <path id="Path_1490907" data-name="Path 1490907" d="M26.076,17.617A3.382,3.382,0,1,1,22.695,21a3.4,3.4,0,0,1,3.381-3.382" transform="translate(-5228.571 -8867.613)" fill="#ffd24d" stroke="#000" stroke-linecap="round" stroke-linejoin="round" stroke-width="1" stroke-dasharray="80 5"/>
      <path id="Path_1490908" data-name="Path 1490908" d="M24.223,27.76l7.746,13.529h-15.6L20.514,34.2Z" transform="translate(-5229.118 -8866.736)" fill="#a5c63b" stroke="#000" stroke-linecap="round" stroke-linejoin="round" stroke-width="1" stroke-dasharray="80 5"/>
      <path id="Path_1490909" data-name="Path 1490909" d="M15.368,24.044l6.109,10.475-4.145,7.09H5.222Z" transform="translate(-5230.082 -8867.058)" fill="#80af52" stroke="#000" stroke-linecap="round" stroke-linejoin="round" stroke-width="1" stroke-dasharray="80 5"/>
      <path id="Path_1490910" data-name="Path 1490910" d="M31.32,50.59a1.383,1.383,0,0,1,.437.982,1.184,1.184,0,0,1-.437.982,1.384,1.384,0,0,1-.981.436,1.444,1.444,0,0,1-1.419-1.418,1.189,1.189,0,0,1,.436-.982,1.629,1.629,0,0,1,.983-.437,3.888,3.888,0,0,1,.981.437" transform="translate(-5228.033 -8864.801)" fill="#576275" stroke="#000" stroke-linecap="round" stroke-linejoin="round" stroke-width="1" stroke-dasharray="80 5"/>
      <rect id="Rectangle_425526" data-name="Rectangle 425526" width="2.727" height="2.727" transform="translate(-5223.357 -8867.208) rotate(-45)" fill="#ef727a" stroke="#000" stroke-linecap="round" stroke-linejoin="round" stroke-width="1" stroke-dasharray="80 5"/>
      <path id="Path_1490911" data-name="Path 1490911" d="M8.49,3.559l1.964,1.963L8.49,7.377,6.526,5.522Z" transform="translate(-5229.969 -8868.829)" fill="#ef727a" stroke="#000" stroke-linecap="round" stroke-linejoin="round" stroke-width="1" stroke-dasharray="80 5"/>
      <path id="Path_1490912" data-name="Path 1490912" d="M6.83,1.9,4.976,3.864,3.011,1.9,4.976.044Z" transform="translate(-5230.273 -8869.133)" fill="#ef727a" stroke="#000" stroke-linecap="round" stroke-linejoin="round" stroke-width="1" stroke-dasharray="80 5"/>
      <path id="Path_1490913" data-name="Path 1490913" d="M6.83,5.523,4.976,7.377,3.011,5.523,4.976,3.559Z" transform="translate(-5230.273 -8868.829)" fill="#ef727a" stroke="#000" stroke-linecap="round" stroke-linejoin="round" stroke-width="1" stroke-dasharray="80 5"/>
      <path id="Path_1490914" data-name="Path 1490914" d="M28.25,53.632H13.958a3.382,3.382,0,1,1,0-6.764H18.1a.769.769,0,0,0,.655-.654.7.7,0,0,0-.655-.655H6.43a1.352,1.352,0,0,1-1.309-1.418A1.429,1.429,0,0,1,6.43,42.722H18a3.382,3.382,0,1,1,0,6.764H13.849a.7.7,0,0,0-.654.655c0,.218.109.437.218.437a.827.827,0,0,0,.436.217H28.141a1.444,1.444,0,0,1,1.418,1.419,1.288,1.288,0,0,1-1.309,1.418" transform="translate(-5230.09 -8865.442)" fill="#576275" stroke="#000" stroke-linecap="round" stroke-linejoin="round" stroke-width="1" stroke-dasharray="80 5"/>
    </g>
  </g>
</svg>
